<svg viewBox="0 0 220 220" xmlns="http://www.w3.org/2000/svg"><g fill="currentColor"><g shape-rendering="geometricPrecision" transform="translate(10 10)"><rect x="62.935" y=".872" width="5.172" height="5.172" rx="4"/><rect x="69.831" y=".872" width="5.172" height="5.172" rx="4"/><rect x="83.622" y=".872" width="5.172" height="5.172" rx="4"/><rect x="97.414" y=".872" width="5.172" height="5.172" rx="4"/><rect x="111.206" y=".872" width="5.172" height="5.172" rx="4"/><rect x="118.102" y=".872" width="5.172" height="5.172" rx="4"/><rect x="124.997" y=".872" width="5.172" height="5.172" rx="4"/><rect x="131.893" y=".872" width="5.172" height="5.172" rx="4"/><rect x="138.789" y=".872" width="5.172" height="5.172" rx="4"/><rect x="76.726" y="7.768" width="5.172" height="5.172" rx="4"/><rect x="83.622" y="7.768" width="5.172" height="5.172" rx="4"/><rect x="90.518" y="7.768" width="5.172" height="5.172" rx="4"/><rect x="104.31" y="7.768" width="5.172" height="5.172" rx="4"/><rect x="118.102" y="7.768" width="5.172" height="5.172" rx="4"/><rect x="124.997" y="7.768" width="5.172" height="5.172" rx="4"/><rect x="62.935" y="14.664" width="5.172" height="5.172" rx="4"/><rect x="76.726" y="14.664" width="5.172" height="5.172" rx="4"/><rect x="83.622" y="14.664" width="5.172" height="5.172" rx="4"/><rect x="124.997" y="14.664" width="5.172" height="5.172" rx="4"/><rect x="69.831" y="21.56" width="5.172" height="5.172" rx="4"/><rect x="76.726" y="21.56" width="5.172" height="5.172" rx="4"/><rect x="90.518" y="21.56" width="5.172" height="5.172" rx="4"/><rect x="97.414" y="21.56" width="5.172" height="5.172" rx="4"/><rect x="104.31" y="21.56" width="5.172" height="5.172" rx="4"/><rect x="111.206" y="21.56" width="5.172" height="5.172" rx="4"/><rect x="118.102" y="21.56" width="5.172" height="5.172" rx="4"/><rect x="56.039" y="28.455" width="5.172" height="5.172" rx="4"/><rect x="69.831" y="28.455" width="5.172" height="5.172" rx="4"/><rect x="83.622" y="28.455" width="5.172" height="5.172" rx="4"/><rect x="104.31" y="28.455" width="5.172" height="5.172" rx="4"/><rect x="131.893" y="28.455" width="5.172" height="5.172" rx="4"/><rect x="138.789" y="28.455" width="5.172" height="5.172" rx="4"/><rect x="62.935" y="35.351" width="5.172" height="5.172" rx="4"/><rect x="76.726" y="35.351" width="5.172" height="5.172" rx="4"/><rect x="83.622" y="35.351" width="5.172" height="5.172" rx="4"/><rect x="97.414" y="35.351" width="5.172" height="5.172" rx="4"/><rect x="118.102" y="35.351" width="5.172" height="5.172" rx="4"/><rect x="131.893" y="35.351" width="5.172" height="5.172" rx="4"/><rect x="138.789" y="35.351" width="5.172" height="5.172" rx="4"/><rect x="56.039" y="42.247" width="5.172" height="5.172" rx="4"/><rect x="69.831" y="42.247" width="5.172" height="5.172" rx="4"/><rect x="83.622" y="42.247" width="5.172" height="5.172" rx="4"/><rect x="97.414" y="42.247" width="5.172" height="5.172" rx="4"/><rect x="111.206" y="42.247" width="5.172" height="5.172" rx="4"/><rect x="124.997" y="42.247" width="5.172" height="5.172" rx="4"/><rect x="138.789" y="42.247" width="5.172" height="5.172" rx="4"/><rect x="56.039" y="49.143" width="5.172" height="5.172" rx="4"/><rect x="76.726" y="49.143" width="5.172" height="5.172" rx="4"/><rect x="83.622" y="49.143" width="5.172" height="5.172" rx="4"/><rect x="90.518" y="49.143" width="5.172" height="5.172" rx="4"/><rect x="111.206" y="49.143" width="5.172" height="5.172" rx="4"/><rect x="118.102" y="49.143" width="5.172" height="5.172" rx="4"/><rect x="124.997" y="49.143" width="5.172" height="5.172" rx="4"/><rect x="131.893" y="49.143" width="5.172" height="5.172" rx="4"/><rect x="14.664" y="56.039" width="5.172" height="5.172" rx="4"/><rect x="21.56" y="56.039" width="5.172" height="5.172" rx="4"/><rect x="42.247" y="56.039" width="5.172" height="5.172" rx="4"/><rect x="49.143" y="56.039" width="5.172" height="5.172" rx="4"/><rect x="56.039" y="56.039" width="5.172" height="5.172" rx="4"/><rect x="69.831" y="56.039" width="5.172" height="5.172" rx="4"/><rect x="90.518" y="56.039" width="5.172" height="5.172" rx="4"/><rect x="97.414" y="56.039" width="5.172" height="5.172" rx="4"/><rect x="111.206" y="56.039" width="5.172" height="5.172" rx="4"/><rect x="138.789" y="56.039" width="5.172" height="5.172" rx="4"/><rect x="145.685" y="56.039" width="5.172" height="5.172" rx="4"/><rect x="152.581" y="56.039" width="5.172" height="5.172" rx="4"/><rect x="166.373" y="56.039" width="5.172" height="5.172" rx="4"/><rect x=".872" y="62.935" width="5.172" height="5.172" rx="4"/><rect x="14.664" y="62.935" width="5.172" height="5.172" rx="4"/><rect x="21.56" y="62.935" width="5.172" height="5.172" rx="4"/><rect x="49.143" y="62.935" width="5.172" height="5.172" rx="4"/><rect x="56.039" y="62.935" width="5.172" height="5.172" rx="4"/><rect x="62.935" y="62.935" width="5.172" height="5.172" rx="4"/><rect x="90.518" y="62.935" width="5.172" height="5.172" rx="4"/><rect x="104.31" y="62.935" width="5.172" height="5.172" rx="4"/><rect x="118.102" y="62.935" width="5.172" height="5.172" rx="4"/><rect x="124.997" y="62.935" width="5.172" height="5.172" rx="4"/><rect x="131.893" y="62.935" width="5.172" height="5.172" rx="4"/><rect x="138.789" y="62.935" width="5.172" height="5.172" rx="4"/><rect x="145.685" y="62.935" width="5.172" height="5.172" rx="4"/><rect x="152.581" y="62.935" width="5.172" height="5.172" rx="4"/><rect x="159.477" y="62.935" width="5.172" height="5.172" rx="4"/><rect x="166.373" y="62.935" width="5.172" height="5.172" rx="4"/><rect x="173.269" y="62.935" width="5.172" height="5.172" rx="4"/><rect x="180.164" y="62.935" width="5.172" height="5.172" rx="4"/><rect x="193.956" y="62.935" width="5.172" height="5.172" rx="4"/><rect x=".872" y="69.831" width="5.172" height="5.172" rx="4"/><rect x="14.664" y="69.831" width="5.172" height="5.172" rx="4"/><rect x="28.455" y="69.831" width="5.172" height="5.172" rx="4"/><rect x="42.247" y="69.831" width="5.172" height="5.172" rx="4"/><rect x="62.935" y="69.831" width="5.172" height="5.172" rx="4"/><rect x="69.831" y="69.831" width="5.172" height="5.172" rx="4"/><rect x="76.726" y="69.831" width="5.172" height="5.172" rx="4"/><rect x="83.622" y="69.831" width="5.172" height="5.172" rx="4"/><rect x="90.518" y="69.831" width="5.172" height="5.172" rx="4"/><rect x="104.31" y="69.831" width="5.172" height="5.172" rx="4"/><rect x="118.102" y="69.831" width="5.172" height="5.172" rx="4"/><rect x="124.997" y="69.831" width="5.172" height="5.172" rx="4"/><rect x="152.581" y="69.831" width="5.172" height="5.172" rx="4"/><rect x="166.373" y="69.831" width="5.172" height="5.172" rx="4"/><rect x="187.06" y="69.831" width="5.172" height="5.172" rx="4"/><rect x=".872" y="76.726" width="5.172" height="5.172" rx="4"/><rect x="7.768" y="76.726" width="5.172" height="5.172" rx="4"/><rect x="28.455" y="76.726" width="5.172" height="5.172" rx="4"/><rect x="56.039" y="76.726" width="5.172" height="5.172" rx="4"/><rect x="131.893" y="76.726" width="5.172" height="5.172" rx="4"/><rect x="159.477" y="76.726" width="5.172" height="5.172" rx="4"/><rect x="166.373" y="76.726" width="5.172" height="5.172" rx="4"/><rect x="193.956" y="76.726" width="5.172" height="5.172" rx="4"/><rect x="7.768" y="83.622" width="5.172" height="5.172" rx="4"/><rect x="28.455" y="83.622" width="5.172" height="5.172" rx="4"/><rect x="35.351" y="83.622" width="5.172" height="5.172" rx="4"/><rect x="42.247" y="83.622" width="5.172" height="5.172" rx="4"/><rect x="49.143" y="83.622" width="5.172" height="5.172" rx="4"/><rect x="62.935" y="83.622" width="5.172" height="5.172" rx="4"/><rect x="131.893" y="83.622" width="5.172" height="5.172" rx="4"/><rect x="145.685" y="83.622" width="5.172" height="5.172" rx="4"/><rect x="159.477" y="83.622" width="5.172" height="5.172" rx="4"/><rect x="180.164" y="83.622" width="5.172" height="5.172" rx="4"/><rect x="187.06" y="83.622" width="5.172" height="5.172" rx="4"/><rect x="193.956" y="83.622" width="5.172" height="5.172" rx="4"/><rect x=".872" y="90.518" width="5.172" height="5.172" rx="4"/><rect x="7.768" y="90.518" width="5.172" height="5.172" rx="4"/><rect x="28.455" y="90.518" width="5.172" height="5.172" rx="4"/><rect x="35.351" y="90.518" width="5.172" height="5.172" rx="4"/><rect x="49.143" y="90.518" width="5.172" height="5.172" rx="4"/><rect x="56.039" y="90.518" width="5.172" height="5.172" rx="4"/><rect x="131.893" y="90.518" width="5.172" height="5.172" rx="4"/><rect x="152.581" y="90.518" width="5.172" height="5.172" rx="4"/><rect x="159.477" y="90.518" width="5.172" height="5.172" rx="4"/><rect x="173.269" y="90.518" width="5.172" height="5.172" rx="4"/><rect x="180.164" y="90.518" width="5.172" height="5.172" rx="4"/><rect x="193.956" y="90.518" width="5.172" height="5.172" rx="4"/><rect x="21.56" y="97.414" width="5.172" height="5.172" rx="4"/><rect x="28.455" y="97.414" width="5.172" height="5.172" rx="4"/><rect x="35.351" y="97.414" width="5.172" height="5.172" rx="4"/><rect x="42.247" y="97.414" width="5.172" height="5.172" rx="4"/><rect x="62.935" y="97.414" width="5.172" height="5.172" rx="4"/><rect x="131.893" y="97.414" width="5.172" height="5.172" rx="4"/><rect x="138.789" y="97.414" width="5.172" height="5.172" rx="4"/><rect x="152.581" y="97.414" width="5.172" height="5.172" rx="4"/><rect x="159.477" y="97.414" width="5.172" height="5.172" rx="4"/><rect x="166.373" y="97.414" width="5.172" height="5.172" rx="4"/><rect x="173.269" y="97.414" width="5.172" height="5.172" rx="4"/><rect x="193.956" y="97.414" width="5.172" height="5.172" rx="4"/><rect x="7.768" y="104.31" width="5.172" height="5.172" rx="4"/><rect x="14.664" y="104.31" width="5.172" height="5.172" rx="4"/><rect x="35.351" y="104.31" width="5.172" height="5.172" rx="4"/><rect x="49.143" y="104.31" width="5.172" height="5.172" rx="4"/><rect x="131.893" y="104.31" width="5.172" height="5.172" rx="4"/><rect x="166.373" y="104.31" width="5.172" height="5.172" rx="4"/><rect x="173.269" y="104.31" width="5.172" height="5.172" rx="4"/><rect x=".872" y="111.206" width="5.172" height="5.172" rx="4"/><rect x="21.56" y="111.206" width="5.172" height="5.172" rx="4"/><rect x="35.351" y="111.206" width="5.172" height="5.172" rx="4"/><rect x="42.247" y="111.206" width="5.172" height="5.172" rx="4"/><rect x="56.039" y="111.206" width="5.172" height="5.172" rx="4"/><rect x="62.935" y="111.206" width="5.172" height="5.172" rx="4"/><rect x="131.893" y="111.206" width="5.172" height="5.172" rx="4"/><rect x="138.789" y="111.206" width="5.172" height="5.172" rx="4"/><rect x="145.685" y="111.206" width="5.172" height="5.172" rx="4"/><rect x="159.477" y="111.206" width="5.172" height="5.172" rx="4"/><rect x="166.373" y="111.206" width="5.172" height="5.172" rx="4"/><rect x="173.269" y="111.206" width="5.172" height="5.172" rx="4"/><rect x="193.956" y="111.206" width="5.172" height="5.172" rx="4"/><rect x="21.56" y="118.102" width="5.172" height="5.172" rx="4"/><rect x="49.143" y="118.102" width="5.172" height="5.172" rx="4"/><rect x="62.935" y="118.102" width="5.172" height="5.172" rx="4"/><rect x="138.789" y="118.102" width="5.172" height="5.172" rx="4"/><rect x="145.685" y="118.102" width="5.172" height="5.172" rx="4"/><rect x="173.269" y="118.102" width="5.172" height="5.172" rx="4"/><rect x=".872" y="124.997" width="5.172" height="5.172" rx="4"/><rect x="21.56" y="124.997" width="5.172" height="5.172" rx="4"/><rect x="28.455" y="124.997" width="5.172" height="5.172" rx="4"/><rect x="35.351" y="124.997" width="5.172" height="5.172" rx="4"/><rect x="42.247" y="124.997" width="5.172" height="5.172" rx="4"/><rect x="49.143" y="124.997" width="5.172" height="5.172" rx="4"/><rect x="69.831" y="124.997" width="5.172" height="5.172" rx="4"/><rect x="97.414" y="124.997" width="5.172" height="5.172" rx="4"/><rect x="111.206" y="124.997" width="5.172" height="5.172" rx="4"/><rect x="124.997" y="124.997" width="5.172" height="5.172" rx="4"/><rect x="152.581" y="124.997" width="5.172" height="5.172" rx="4"/><rect x="159.477" y="124.997" width="5.172" height="5.172" rx="4"/><rect x="166.373" y="124.997" width="5.172" height="5.172" rx="4"/><rect x="173.269" y="124.997" width="5.172" height="5.172" rx="4"/><rect x="180.164" y="124.997" width="5.172" height="5.172" rx="4"/><rect x="49.143" y="131.893" width="5.172" height="5.172" rx="4"/><rect x="69.831" y="131.893" width="5.172" height="5.172" rx="4"/><rect x="83.622" y="131.893" width="5.172" height="5.172" rx="4"/><rect x="90.518" y="131.893" width="5.172" height="5.172" rx="4"/><rect x="118.102" y="131.893" width="5.172" height="5.172" rx="4"/><rect x="131.893" y="131.893" width="5.172" height="5.172" rx="4"/><rect x="145.685" y="131.893" width="5.172" height="5.172" rx="4"/><rect x="152.581" y="131.893" width="5.172" height="5.172" rx="4"/><rect x="166.373" y="131.893" width="5.172" height="5.172" rx="4"/><rect x="173.269" y="131.893" width="5.172" height="5.172" rx="4"/><rect x="180.164" y="131.893" width="5.172" height="5.172" rx="4"/><rect x="7.768" y="138.789" width="5.172" height="5.172" rx="4"/><rect x="28.455" y="138.789" width="5.172" height="5.172" rx="4"/><rect x="35.351" y="138.789" width="5.172" height="5.172" rx="4"/><rect x="42.247" y="138.789" width="5.172" height="5.172" rx="4"/><rect x="56.039" y="138.789" width="5.172" height="5.172" rx="4"/><rect x="62.935" y="138.789" width="5.172" height="5.172" rx="4"/><rect x="83.622" y="138.789" width="5.172" height="5.172" rx="4"/><rect x="90.518" y="138.789" width="5.172" height="5.172" rx="4"/><rect x="104.31" y="138.789" width="5.172" height="5.172" rx="4"/><rect x="111.206" y="138.789" width="5.172" height="5.172" rx="4"/><rect x="138.789" y="138.789" width="5.172" height="5.172" rx="4"/><rect x="145.685" y="138.789" width="5.172" height="5.172" rx="4"/><rect x="152.581" y="138.789" width="5.172" height="5.172" rx="4"/><rect x="159.477" y="138.789" width="5.172" height="5.172" rx="4"/><rect x="166.373" y="138.789" width="5.172" height="5.172" rx="4"/><rect x="173.269" y="138.789" width="5.172" height="5.172" rx="4"/><rect x="180.164" y="138.789" width="5.172" height="5.172" rx="4"/><rect x="56.039" y="145.685" width="5.172" height="5.172" rx="4"/><rect x="69.831" y="145.685" width="5.172" height="5.172" rx="4"/><rect x="76.726" y="145.685" width="5.172" height="5.172" rx="4"/><rect x="83.622" y="145.685" width="5.172" height="5.172" rx="4"/><rect x="90.518" y="145.685" width="5.172" height="5.172" rx="4"/><rect x="97.414" y="145.685" width="5.172" height="5.172" rx="4"/><rect x="111.206" y="145.685" width="5.172" height="5.172" rx="4"/><rect x="118.102" y="145.685" width="5.172" height="5.172" rx="4"/><rect x="124.997" y="145.685" width="5.172" height="5.172" rx="4"/><rect x="138.789" y="145.685" width="5.172" height="5.172" rx="4"/><rect x="166.373" y="145.685" width="5.172" height="5.172" rx="4"/><rect x="173.269" y="145.685" width="5.172" height="5.172" rx="4"/><rect x="187.06" y="145.685" width="5.172" height="5.172" rx="4"/><rect x="193.956" y="145.685" width="5.172" height="5.172" rx="4"/><rect x="56.039" y="152.581" width="5.172" height="5.172" rx="4"/><rect x="76.726" y="152.581" width="5.172" height="5.172" rx="4"/><rect x="90.518" y="152.581" width="5.172" height="5.172" rx="4"/><rect x="104.31" y="152.581" width="5.172" height="5.172" rx="4"/><rect x="111.206" y="152.581" width="5.172" height="5.172" rx="4"/><rect x="118.102" y="152.581" width="5.172" height="5.172" rx="4"/><rect x="124.997" y="152.581" width="5.172" height="5.172" rx="4"/><rect x="131.893" y="152.581" width="5.172" height="5.172" rx="4"/><rect x="138.789" y="152.581" width="5.172" height="5.172" rx="4"/><rect x="152.581" y="152.581" width="5.172" height="5.172" rx="4"/><rect x="166.373" y="152.581" width="5.172" height="5.172" rx="4"/><rect x="180.164" y="152.581" width="5.172" height="5.172" rx="4"/><rect x="187.06" y="152.581" width="5.172" height="5.172" rx="4"/><rect x="69.831" y="159.477" width="5.172" height="5.172" rx="4"/><rect x="76.726" y="159.477" width="5.172" height="5.172" rx="4"/><rect x="83.622" y="159.477" width="5.172" height="5.172" rx="4"/><rect x="104.31" y="159.477" width="5.172" height="5.172" rx="4"/><rect x="111.206" y="159.477" width="5.172" height="5.172" rx="4"/><rect x="138.789" y="159.477" width="5.172" height="5.172" rx="4"/><rect x="166.373" y="159.477" width="5.172" height="5.172" rx="4"/><rect x="69.831" y="166.373" width="5.172" height="5.172" rx="4"/><rect x="76.726" y="166.373" width="5.172" height="5.172" rx="4"/><rect x="104.31" y="166.373" width="5.172" height="5.172" rx="4"/><rect x="111.206" y="166.373" width="5.172" height="5.172" rx="4"/><rect x="118.102" y="166.373" width="5.172" height="5.172" rx="4"/><rect x="124.997" y="166.373" width="5.172" height="5.172" rx="4"/><rect x="138.789" y="166.373" width="5.172" height="5.172" rx="4"/><rect x="145.685" y="166.373" width="5.172" height="5.172" rx="4"/><rect x="152.581" y="166.373" width="5.172" height="5.172" rx="4"/><rect x="159.477" y="166.373" width="5.172" height="5.172" rx="4"/><rect x="166.373" y="166.373" width="5.172" height="5.172" rx="4"/><rect x="173.269" y="166.373" width="5.172" height="5.172" rx="4"/><rect x="180.164" y="166.373" width="5.172" height="5.172" rx="4"/><rect x="56.039" y="173.269" width="5.172" height="5.172" rx="4"/><rect x="62.935" y="173.269" width="5.172" height="5.172" rx="4"/><rect x="83.622" y="173.269" width="5.172" height="5.172" rx="4"/><rect x="90.518" y="173.269" width="5.172" height="5.172" rx="4"/><rect x="104.31" y="173.269" width="5.172" height="5.172" rx="4"/><rect x="118.102" y="173.269" width="5.172" height="5.172" rx="4"/><rect x="131.893" y="173.269" width="5.172" height="5.172" rx="4"/><rect x="166.373" y="173.269" width="5.172" height="5.172" rx="4"/><rect x="173.269" y="173.269" width="5.172" height="5.172" rx="4"/><rect x="187.06" y="173.269" width="5.172" height="5.172" rx="4"/><rect x="56.039" y="180.164" width="5.172" height="5.172" rx="4"/><rect x="76.726" y="180.164" width="5.172" height="5.172" rx="4"/><rect x="90.518" y="180.164" width="5.172" height="5.172" rx="4"/><rect x="97.414" y="180.164" width="5.172" height="5.172" rx="4"/><rect x="104.31" y="180.164" width="5.172" height="5.172" rx="4"/><rect x="118.102" y="180.164" width="5.172" height="5.172" rx="4"/><rect x="124.997" y="180.164" width="5.172" height="5.172" rx="4"/><rect x="138.789" y="180.164" width="5.172" height="5.172" rx="4"/><rect x="159.477" y="180.164" width="5.172" height="5.172" rx="4"/><rect x="180.164" y="180.164" width="5.172" height="5.172" rx="4"/><rect x="193.956" y="180.164" width="5.172" height="5.172" rx="4"/><rect x="76.726" y="187.06" width="5.172" height="5.172" rx="4"/><rect x="90.518" y="187.06" width="5.172" height="5.172" rx="4"/><rect x="97.414" y="187.06" width="5.172" height="5.172" rx="4"/><rect x="124.997" y="187.06" width="5.172" height="5.172" rx="4"/><rect x="138.789" y="187.06" width="5.172" height="5.172" rx="4"/><rect x="145.685" y="187.06" width="5.172" height="5.172" rx="4"/><rect x="166.373" y="187.06" width="5.172" height="5.172" rx="4"/><rect x="173.269" y="187.06" width="5.172" height="5.172" rx="4"/><rect x="187.06" y="187.06" width="5.172" height="5.172" rx="4"/><rect x="62.935" y="193.956" width="5.172" height="5.172" rx="4"/><rect x="69.831" y="193.956" width="5.172" height="5.172" rx="4"/><rect x="83.622" y="193.956" width="5.172" height="5.172" rx="4"/><rect x="90.518" y="193.956" width="5.172" height="5.172" rx="4"/><rect x="111.206" y="193.956" width="5.172" height="5.172" rx="4"/><rect x="118.102" y="193.956" width="5.172" height="5.172" rx="4"/><rect x="131.893" y="193.956" width="5.172" height="5.172" rx="4"/><rect x="138.789" y="193.956" width="5.172" height="5.172" rx="4"/><rect x="152.581" y="193.956" width="5.172" height="5.172" rx="4"/><rect x="159.477" y="193.956" width="5.172" height="5.172" rx="4"/><rect x="187.06" y="193.956" width="5.172" height="5.172" rx="4"/></g><g shape-rendering="geometricPrecision" transform="translate(10 10)"><path d="M10.344 0h27.583a10.344 10.344 0 0110.344 10.344v27.583a10.344 10.344 0 01-10.344 10.344H10.344A10.344 10.344 0 010 37.927V10.344A10.344 10.344 0 0110.344 0zm0 6.896h27.583a3.448 3.448 0 013.448 3.448v27.583a3.448 3.448 0 01-3.448 3.448H10.344a3.448 3.448 0 01-3.448-3.448V10.344a3.448 3.448 0 013.448-3.448zM162.073 0h27.583A10.344 10.344 0 01200 10.344v27.583a10.344 10.344 0 01-10.344 10.344h-27.583a10.344 10.344 0 01-10.344-10.344V10.344A10.344 10.344 0 01162.073 0zm0 6.896h27.583a3.448 3.448 0 013.448 3.448v27.583a3.448 3.448 0 01-3.448 3.448h-27.583a3.448 3.448 0 01-3.448-3.448V10.344a3.448 3.448 0 013.448-3.448zM10.344 151.729h27.583a10.344 10.344 0 0110.344 10.344v27.583A10.344 10.344 0 0137.927 200H10.344A10.344 10.344 0 010 189.656v-27.583a10.344 10.344 0 0110.344-10.344zm0 6.896h27.583a3.448 3.448 0 013.448 3.448v27.583a3.448 3.448 0 01-3.448 3.448H10.344a3.448 3.448 0 01-3.448-3.448v-27.583a3.448 3.448 0 013.448-3.448z" fill-rule="evenodd"/><rect x="13.792" y="13.792" width="20.688" height="20.688" rx="3.448"/><rect x="165.521" y="13.792" width="20.688" height="20.688" rx="3.448"/><rect x="13.792" y="165.521" width="20.688" height="20.688" rx="3.448"/></g><g transform="translate(10 10)"><path d="M77.41 93.619c0-6.504 3.912-10.023 8.508-10.61 3.472-.44 7.775-.49 12.859-.49 7.92 0 9.974.098 12.907.391 6.895.684 10.903 4.938 10.903 11.05v.783c0 5.672-4.155 10.317-9.779 10.805-.44 1.467-1.124 2.933-2.053 4.401-2.151 3.325-6.454 7.53-14.375 7.53h-1.564c-6.455 0-11.442-2.787-14.424-7.872-2.641-4.449-2.983-9.388-2.983-15.988zm3.667.047c0 6.308.391 10.366 2.445 14.13 2.346 4.352 6.6 6.015 11.441 6.015h1.515c6.357 0 9.437-3.081 11.149-5.77.83-1.369 1.564-2.884 1.955-4.792l.293-1.222h1.76c3.912 0 7.286-3.177 7.286-7.236v-.733c0-4.547-2.835-6.944-7.775-7.53-2.786-.244-4.449-.342-12.37-.342-5.33 0-9.143.05-12.028.49-4.058.586-5.672 2.884-5.672 6.99z" fill-rule="evenodd"/><path d="M109.877 97.041c0 .587.44 1.027 1.223 1.027 2.493 0 3.863-1.418 3.863-3.764 0-2.347-1.37-3.814-3.863-3.814-.783 0-1.223.44-1.223 1.027v5.525zM85.87 96.748c0 2.885 1.613 5.379 3.667 7.335 1.369 1.32 3.52 2.69 4.987 3.57.44.244.88.391 1.37.391.586 0 1.074-.147 1.467-.391 1.467-.88 3.617-2.25 4.938-3.57 2.102-1.955 3.715-4.449 3.715-7.335 0-3.13-2.346-5.916-5.72-5.916-2.004 0-3.374 1.028-4.4 2.445-.93-1.419-2.347-2.445-4.353-2.445-3.423 0-5.672 2.787-5.672 5.916"/></g></g></svg>